<svg xmlns="http://www.w3.org/2000/svg" width="163.07" height="48.57" viewBox="0 0 163.07 48.57"><defs><style>.a{fill:#0093dd;}.b{fill:#333;}</style></defs><path class="a" d="M58.72,33.07h0a10.74,10.74,0,0,0,1.4-.09,10.86,10.86,0,0,0,1.31-.29h0a9.6,9.6,0,0,0,1.24-.46,8.67,8.67,0,0,0,1.12-.62l.14-.09.13.11,1,.85h0a1.24,1.24,0,0,0,.22.18h0a2.2,2.2,0,0,0,.26.15,1.71,1.71,0,0,0,.3.09,1.86,1.86,0,0,0,.33,0h0a1.47,1.47,0,0,0,.42-.06h0a1.73,1.73,0,0,0,.37-.16,1.61,1.61,0,0,0,.32-.25,2,2,0,0,0,.25-.33h0a1.8,1.8,0,0,0,.16-.38h0a1.859,1.859,0,0,0,0-.42h0a1.58,1.58,0,0,0,0-.38,1.38,1.38,0,0,0-.12-.34l-.2-.3a2,2,0,0,0-.25-.25l-.75-.63-.15-.12.11-.17A8.659,8.659,0,0,0,66.94,28a9.5,9.5,0,0,0,.47-1.19h0a8.709,8.709,0,0,0,.3-1.27,8.2,8.2,0,0,0,.1-1.32h0v-.05h0a9.759,9.759,0,0,0-.11-1.44,8.59,8.59,0,0,0-.32-1.33h0a8.809,8.809,0,0,0-.53-1.26,8.29,8.29,0,0,0-.7-1.14,7.87,7.87,0,0,0-.88-1,8.79,8.79,0,0,0-1-.88h0a8.2,8.2,0,0,0-1.18-.71h0a8.76,8.76,0,0,0-1.31-.53,8.39,8.39,0,0,0-1.44-.33,9.49,9.49,0,0,0-1.53-.12,9.7,9.7,0,0,0-1.54.12,9,9,0,0,0-3.94,1.59h0a8.87,8.87,0,0,0-1,.89,8.67,8.67,0,0,0-.89,1h0a10.451,10.451,0,0,0-.71,1.15,8.3,8.3,0,0,0-.53,1.27h0a8.86,8.86,0,0,0-.33,1.35,9.52,9.52,0,0,0-.11,1.43h0a9.389,9.389,0,0,0,.11,1.42A7.82,7.82,0,0,0,50.2,27h0a7.759,7.759,0,0,0,.52,1.26,9.05,9.05,0,0,0,.7,1.15,10.73,10.73,0,0,0,.88,1,9.78,9.78,0,0,0,1,.87h0a8.36,8.36,0,0,0,1.19.72,9.44,9.44,0,0,0,1.31.53,10.31,10.31,0,0,0,1.43.33,10.911,10.911,0,0,0,1.53.11Zm.67-5.51,1.82,1.55.26.22-.31.14a3.76,3.76,0,0,1-.55.23,5.47,5.47,0,0,1-.58.15h0a6.169,6.169,0,0,1-.62.09h-.64a5.5,5.5,0,0,1-1.16-.12,4.69,4.69,0,0,1-1.06-.34,5.07,5.07,0,0,1-.94-.53h0a6,6,0,0,1-.81-.7,6.6,6.6,0,0,1-.65-.85,5.47,5.47,0,0,1-.48-1h0a6.259,6.259,0,0,1-.3-1.07,6.88,6.88,0,0,1-.1-1.13h0v-.05h0a7.11,7.11,0,0,1,.1-1.14,6.28,6.28,0,0,1,.77-2,5.24,5.24,0,0,1,.65-.84,4.78,4.78,0,0,1,.8-.69,5.23,5.23,0,0,1,.93-.53h0a5.14,5.14,0,0,1,1.05-.33,6.25,6.25,0,0,1,1.16-.11h0a6.17,6.17,0,0,1,1.16.11A5.56,5.56,0,0,1,61,19a6.05,6.05,0,0,1,.93.53h0a4.53,4.53,0,0,1,.81.7,5.46,5.46,0,0,1,.65.85,5.87,5.87,0,0,1,.49,1,6.41,6.41,0,0,1,.3,1.06,6.119,6.119,0,0,1,.1,1.14h0a6.26,6.26,0,0,1-.13,1.31,6,6,0,0,1-.15.61,5.371,5.371,0,0,1-.21.56l-.12.28-.23-.2-1.92-1.72a1.649,1.649,0,0,0-.27-.21,1.74,1.74,0,0,0-.26-.15h0a.77.77,0,0,0-.27-.08,1.69,1.69,0,0,0-.33,0h0a1.47,1.47,0,0,0-.42.06,1.1,1.1,0,0,0-.37.16,1.31,1.31,0,0,0-.32.25h0a1.54,1.54,0,0,0-.25.32,1.68,1.68,0,0,0-.16.39,1.86,1.86,0,0,0,0,.42h0a1.37,1.37,0,0,0,.17.72h0a2.23,2.23,0,0,0,.2.3,2.06,2.06,0,0,0,.25.26Zm20.55,5.51A11.05,11.05,0,0,0,81.48,33a9.61,9.61,0,0,0,1.43-.34,8,8,0,0,0,1.31-.53h0a9.14,9.14,0,0,0,1.2-.73h0a8.74,8.74,0,0,0,1.93-1.91h0a8.459,8.459,0,0,0,.71-1.15A8.631,8.631,0,0,0,88.59,27h0a9.16,9.16,0,0,0,.33-1.35A9.63,9.63,0,0,0,89,24.26h0v-.05h0a9.76,9.76,0,0,0-.11-1.44,7.611,7.611,0,0,0-.33-1.33h0a7.76,7.76,0,0,0-.52-1.26,8.291,8.291,0,0,0-.7-1.14,8.65,8.65,0,0,0-1.92-1.9h0a8.79,8.79,0,0,0-1.18-.71h0A8.46,8.46,0,0,0,83,15.89a8.06,8.06,0,0,0-1.43-.33A9.58,9.58,0,0,0,80,15.44a9.7,9.7,0,0,0-1.54.12,9.021,9.021,0,0,0-3.94,1.59h0a9.88,9.88,0,0,0-1.05.89,8.591,8.591,0,0,0-.88,1h0a9.132,9.132,0,0,0-.71,1.15,7.91,7.91,0,0,0-.53,1.27h0A7.82,7.82,0,0,0,71,22.83a9.519,9.519,0,0,0-.11,1.43h0A9.39,9.39,0,0,0,71,25.73a8.84,8.84,0,0,0,.32,1.35h0a8.809,8.809,0,0,0,.53,1.26,9.05,9.05,0,0,0,.7,1.15h0a9.469,9.469,0,0,0,.88,1,9.781,9.781,0,0,0,1,.87h0a8.36,8.36,0,0,0,1.19.72,9.31,9.31,0,0,0,1.3.53,9.82,9.82,0,0,0,3,.44ZM80,30a5.43,5.43,0,0,1-1.16-.12,4.94,4.94,0,0,1-1.07-.34,5.81,5.81,0,0,1-.94-.53h0a5,5,0,0,1-.81-.7,6.6,6.6,0,0,1-.65-.85,5.66,5.66,0,0,1-.79-2,5.939,5.939,0,0,1-.1-1.13h0v-.05h0a6.121,6.121,0,0,1,.1-1.14A5.791,5.791,0,0,1,74.87,22a6.74,6.74,0,0,1,.48-1,5.24,5.24,0,0,1,.65-.84,5.14,5.14,0,0,1,.79-.69,6.05,6.05,0,0,1,.93-.53h0a5.44,5.44,0,0,1,1.06-.33,6.25,6.25,0,0,1,1.16-.11h0a6.25,6.25,0,0,1,1.16.11,5.25,5.25,0,0,1,1.06.34,5.71,5.71,0,0,1,.94.53h0a5.35,5.35,0,0,1,.81.7,5.46,5.46,0,0,1,.65.85,5.87,5.87,0,0,1,.49,1h0a6.15,6.15,0,0,1,.3,1.06,7.11,7.11,0,0,1,.1,1.14h0a7.11,7.11,0,0,1-.1,1.14,6.3,6.3,0,0,1-.3,1.05,6.1,6.1,0,0,1-.47,1,5.24,5.24,0,0,1-.65.84,5.35,5.35,0,0,1-.8.7,4.65,4.65,0,0,1-.93.52h0a4.59,4.59,0,0,1-1,.33A5.5,5.5,0,0,1,80,30Zm12.9,1.28a1.61,1.61,0,0,0,.06.44,1.31,1.31,0,0,0,.17.4h0a1.46,1.46,0,0,0,.26.34h0a1.84,1.84,0,0,0,.34.27h0a1.76,1.76,0,0,0,.4.16,1.61,1.61,0,0,0,.44.06h0a1.61,1.61,0,0,0,.44-.06,1.76,1.76,0,0,0,.4-.16h0a1.84,1.84,0,0,0,.34-.27h0a1.84,1.84,0,0,0,.27-.34h0a1.59,1.59,0,0,0,.16-.4,1.61,1.61,0,0,0,.06-.44h0v-10l.4.52,7.69,10.09h0c.08.11.17.21.25.3l.26.26.27.2h0a1.4,1.4,0,0,0,.3.15,1.53,1.53,0,0,0,.34.09h0a2.381,2.381,0,0,0,.39,0h.12a1.7,1.7,0,0,0,.46-.06,1.48,1.48,0,0,0,.41-.17h0a1.46,1.46,0,0,0,.34-.26,1.909,1.909,0,0,0,.27-.35,1.4,1.4,0,0,0,.16-.4,2.319,2.319,0,0,0,.07-.46h0V17.27h0a2.119,2.119,0,0,0-.07-.45,1.52,1.52,0,0,0-.16-.4h0a2.239,2.239,0,0,0-.27-.34h0a1.8,1.8,0,0,0-.34-.26h0a1.65,1.65,0,0,0-.84-.23h0a1.63,1.63,0,0,0-.45.06,2,2,0,0,0-.4.17h0a2.18,2.18,0,0,0-.34.26h0a2.18,2.18,0,0,0-.26.34h0a2,2,0,0,0-.17.4,1.63,1.63,0,0,0-.06.45h0v9.66l-.39-.52L96.8,16.68h0a3.761,3.761,0,0,0-.25-.31h0a3.069,3.069,0,0,0-.26-.25h0a2.341,2.341,0,0,0-.27-.2h0a1.4,1.4,0,0,0-.3-.15h0a2.75,2.75,0,0,0-.34-.1,2.38,2.38,0,0,0-.39,0h-.4a1.76,1.76,0,0,0-.46.06,1.78,1.78,0,0,0-.4.17,1.52,1.52,0,0,0-.35.26h0a1.8,1.8,0,0,0-.26.34h0a1.68,1.68,0,0,0-.17.41,1.63,1.63,0,0,0-.06.45h0V31.25Zm27.91,1.82q.6-.021,1.19-.1a5.418,5.418,0,0,0,1.15-.19,7.115,7.115,0,0,0,1-.28c.29-.11.66-.23,1-.35h0c.29-.12.58-.25.84-.39s.52-.28.76-.43h0a3.06,3.06,0,0,0,.55-.42,2.25,2.25,0,0,0,.38-.51h0a2.27,2.27,0,0,0,.23-.6h0a3.29,3.29,0,0,0,.07-.73V24.86h0a1.7,1.7,0,0,0-.06-.46,1.59,1.59,0,0,0-.16-.41,1.9,1.9,0,0,0-.61-.61h0a1.59,1.59,0,0,0-.41-.16,2.21,2.21,0,0,0-.46-.07H122a1.76,1.76,0,0,0-.39.06,1.43,1.43,0,0,0-.34.14,1.52,1.52,0,0,0-.52.53,1,1,0,0,0-.15.34,1.58,1.58,0,0,0,0,.38h0a1.58,1.58,0,0,0,0,.38h0a1.28,1.28,0,0,0,.14.34h0a1.3,1.3,0,0,0,.22.29,1.66,1.66,0,0,0,.3.22h0a1.43,1.43,0,0,0,.34.14,1.23,1.23,0,0,0,.4.03h2.82v2.83l-.1.07a5.4,5.4,0,0,1-.81.48h0a5.5,5.5,0,0,1-.91.34,6.07,6.07,0,0,1-1,.2h0a7.17,7.17,0,0,1-1,.07h0a6.09,6.09,0,0,1-1.16-.11,5.22,5.22,0,0,1-1.06-.32,5.67,5.67,0,0,1-.94-.52,4.85,4.85,0,0,1-.81-.69,5,5,0,0,1-.66-.85,5.94,5.94,0,0,1-.48-1,5.759,5.759,0,0,1-.3-1.1,7.511,7.511,0,0,1-.11-1.19h0v-.05h0a6.872,6.872,0,0,1,.11-1.13,6.411,6.411,0,0,1,.3-1.06,5.38,5.38,0,0,1,.48-1,5.12,5.12,0,0,1,.63-.84h0a5.069,5.069,0,0,1,.78-.69,4.87,4.87,0,0,1,1.88-.87,5.22,5.22,0,0,1,1.06-.11h.8a3.467,3.467,0,0,1,.74.12h0a4.55,4.55,0,0,1,.66.17h0a5,5,0,0,1,.62.25,4.63,4.63,0,0,1,.58.31,6.493,6.493,0,0,1,.55.36h0l.2.13h0l.13.2h0a1.07,1.07,0,0,0,.27.07,1.69,1.69,0,0,0,.33,0h0a1.61,1.61,0,0,0,.44-.06,1.76,1.76,0,0,0,.4-.16h0a1.84,1.84,0,0,0,.34-.27h0a1.46,1.46,0,0,0,.26-.34h0a1.42,1.42,0,0,0,.17-.4,1.61,1.61,0,0,0,.06-.44,1.64,1.64,0,0,0-.11-.6.9.9,0,0,0-.12-.24h0a1.43,1.43,0,0,0-.14-.2h0a1.49,1.49,0,0,0-.17-.18l-.16-.14h0c-.26-.18-.53-.35-.8-.5a9,9,0,0,0-.82-.41h0a7.3,7.3,0,0,0-.9-.32,9.75,9.75,0,0,0-1-.24h0q-.551-.1-1.11-.14h0c-.38,0-.79-.05-1.22-.05h0a9.24,9.24,0,0,0-1.51.12,8.49,8.49,0,0,0-1.41.33,9.35,9.35,0,0,0-1.3.54,8.74,8.74,0,0,0-1.17.72,9.621,9.621,0,0,0-1,.88,7.769,7.769,0,0,0-.87,1h0a7.671,7.671,0,0,0-.71,1.16,8.77,8.77,0,0,0-.52,1.26h0a8.841,8.841,0,0,0-.32,1.35,8.37,8.37,0,0,0-.11,1.43h0a9.78,9.78,0,0,0,.16,1.82,8.66,8.66,0,0,0,1.27,3.17,8.1,8.1,0,0,0,1.06,1.28,7.69,7.69,0,0,0,1.29,1.05,9.15,9.15,0,0,0,1.53.78,9,9,0,0,0,1.73.49,10.8,10.8,0,0,0,1.92.17Zm11.38-1.85a1.76,1.76,0,0,0,.06.46,1.78,1.78,0,0,0,.17.4h0a2.181,2.181,0,0,0,.26.34h0a1.52,1.52,0,0,0,.35.26h0a1.55,1.55,0,0,0,.4.17,1.76,1.76,0,0,0,.46.06h0a1.76,1.76,0,0,0,.46-.06,1.42,1.42,0,0,0,.4-.17h0a1.661,1.661,0,0,0,.77-1.01,1.761,1.761,0,0,0,.06-.46h0V26h7a1.47,1.47,0,0,0,.78-.21,1.4,1.4,0,0,0,.54-.54,1.2,1.2,0,0,0,.15-.37,1.34,1.34,0,0,0,.06-.4h0a1.4,1.4,0,0,0-.06-.41,1.14,1.14,0,0,0-.15-.36,1.5,1.5,0,0,0-.54-.55,1.56,1.56,0,0,0-.78-.2h-7V18.79h8.09a1.67,1.67,0,0,0,.77-.21A1.61,1.61,0,0,0,145,18a1.939,1.939,0,0,0,.15-.36,1.84,1.84,0,0,0,.05-.41h0a1.769,1.769,0,0,0-.05-.41,2.389,2.389,0,0,0-.15-.37,1.761,1.761,0,0,0-.24-.3h0a1.83,1.83,0,0,0-.31-.24h0a1.56,1.56,0,0,0-.77-.21h-9.79a1.63,1.63,0,0,0-.45.06A1.68,1.68,0,0,0,133,16a1.49,1.49,0,0,0-.61.61h0a1.78,1.78,0,0,0-.17.4,1.76,1.76,0,0,0-.06.46h0V31.22Zm23.44,1.83a10.85,10.85,0,0,0,1.65-.12,8.42,8.42,0,0,0,1.46-.36h0A6.7,6.7,0,0,0,160,32a5.71,5.71,0,0,0,1.06-.83h0a5.49,5.49,0,0,0,.85-1.06,6.7,6.7,0,0,0,.63-1.32h0a8.9,8.9,0,0,0,.39-1.56,13.081,13.081,0,0,0,.14-1.83h0V17.29h0a3.4,3.4,0,0,0-.06-.46,2.091,2.091,0,0,0-.17-.41h0a1.7,1.7,0,0,0-.27-.33,1.5,1.5,0,0,0-.34-.27,1.86,1.86,0,0,0-.41-.17,1.63,1.63,0,0,0-.45-.06h0a1.63,1.63,0,0,0-.45.06,1.86,1.86,0,0,0-.41.17,1.62,1.62,0,0,0-.61.61h0a1.78,1.78,0,0,0-.17.4,2.319,2.319,0,0,0-.06.46h0v8.24h0a6.742,6.742,0,0,1-.12,1.32,4.36,4.36,0,0,1-.35,1.09,3.47,3.47,0,0,1-.59.88,3.28,3.28,0,0,1-.8.63h0a4,4,0,0,1-1,.37,5.26,5.26,0,0,1-1.15.13,5.1,5.1,0,0,1-1.14-.13,3.93,3.93,0,0,1-1-.39h0a3.35,3.35,0,0,1-.8-.65,4.089,4.089,0,0,1-.58-.9h0a4.6,4.6,0,0,1-.36-1.12,9.161,9.161,0,0,1-.12-1.35h0V17.29h0a1.761,1.761,0,0,0-.06-.46,1.62,1.62,0,0,0-.17-.41h0a1.639,1.639,0,0,0-.26-.33,1.56,1.56,0,0,0-.35-.27,1.78,1.78,0,0,0-.4-.17,1.76,1.76,0,0,0-.46-.06h0a1.63,1.63,0,0,0-.45.06,1.86,1.86,0,0,0-.41.17,1.62,1.62,0,0,0-.61.61h0a1.78,1.78,0,0,0-.17.4,1.76,1.76,0,0,0-.06.46h0v8.22h0a11,11,0,0,0,.23,2.31,7.441,7.441,0,0,0,.66,1.88h0a5.859,5.859,0,0,0,1.07,1.46h0a5.2,5.2,0,0,0,1.44,1,7.5,7.5,0,0,0,1.8.64,10.29,10.29,0,0,0,2.16.25Z"/><path class="a" d="M32.26,4.7l1,.55c4.72,2.74,7.07,4.11,8.44,6.51S43,16.82,43,22.16v2.62c0,5.34,0,8-1.34,10.4-1.15,2-3,3.3-6.34,5.28h0L30.93,37.9l.11-.06c4-2.34,6-3.5,6.81-4.88s.78-3.66.77-8.2v-2.6c0-4.54,0-6.83-.77-8.2S35,11.42,31,9.08l-1-.56h0l-1.1-.64C25,5.59,23,4.44,21.5,4.44S18,5.58,14.08,7.87h0L13,8.52h0l-1,.56C8,11.42,6,12.58,5.2,14s-.78,3.66-.78,8.2v2.62c0,4.54,0,6.83.78,8.2S8,35.52,12,37.86l1,.56,2,1.16,6.53,3.81L25.89,46l-3.61,2.11h0l-.78.46-1.11-.65L10.75,42.3l-1-.56C5.07,39,2.72,37.58,1.35,35.18S0,30.12,0,24.78V22.16c0-5.34,0-8,1.35-10.4S5.07,8,9.79,5.25l1-.55h0l1.1-.64h0C16.47,1.35,18.78,0,21.5,0s5,1.35,9.66,4.05l1.1.64Z"/><path class="b" d="M28.72,11.12l.59.34C32.43,13.27,34,14.18,35,15.88s1,3.46.95,7v1.66c0,3.52,0,5.3-.95,7s-2.53,2.61-5.64,4.42l-.61.35-.32.19L24,33.91l2.5-1.46.61-.35c2.41-1.41,3.62-2.11,4-2.79s.39-2.06.38-4.78V22.87c0-2.73,0-4.1-.38-4.79s-1.6-1.38-4-2.79l-.6-.35h0l-.7-.41h0c-2.34-1.38-3.52-2.06-4.28-2.06s-1.94.68-4.29,2.06h0l-.7.41h0l-.61.36c-2.42,1.4-3.62,2.1-4,2.78s-.39,2.06-.39,4.79v1.66c0,2.72,0,4.1.39,4.78s1.59,1.38,4,2.79l.61.35,5,2.91h0l11.28,6.58-4.4,2.56-6.88-4-1.11-.65-6.1-3.56-.61-.35C10.56,34.12,9,33.22,8,31.51s-1-3.46-1-7V22.87c0-3.53,0-5.3,1-7s2.53-2.6,5.64-4.42l.6-.34h0l.7-.41h0C18,8.92,19.56,8,21.5,8s3.5.92,6.5,2.71h0l.7.41Z"/></svg>